<?xml version="1.0" standalone="no"?>
<!DOCTYPE svg PUBLIC "-//W3C//DTD SVG 1.1//EN" "http://www.w3.org/Graphics/SVG/1.1/DTD/svg11.dtd" >
<svg xmlns="http://www.w3.org/2000/svg">
<metadata></metadata>
<defs>
<font id="wigrummedium" horiz-adv-x="1136" >
<font-face units-per-em="2048" ascent="1536" descent="-512" />
<missing-glyph horiz-adv-x="512" />
<glyph unicode="&#xfb01;" horiz-adv-x="1275" d="M61 807v217h134v51q0 183 87 283t255 100q79 0 129 -20v-228q-44 27 -97 27q-60 0 -97.5 -38t-37.5 -107v-68h232v-217h-232v-807h-239v807h-134zM864 1184v250h264v-250h-264zM877 0v1024h239v-1024h-239z" />
<glyph unicode="&#xfb02;" horiz-adv-x="1284" d="M61 807v217h134v51q0 183 87 283t255 100q79 0 129 -20v-228q-44 27 -97 27q-60 0 -97.5 -38t-37.5 -107v-68h232v-217h-232v-807h-239v807h-134zM881 0v1464h239v-1464h-239z" />
<glyph unicode="&#xfb03;" horiz-adv-x="1992" d="M61 807v217h134v51q0 183 87 283t255 100q79 0 129 -20v-228q-44 27 -97 27q-60 0 -97.5 -38t-37.5 -107v-68h477v51q0 183 87 283t255 100q79 0 129 -20v-228q-44 27 -96 27q-60 0 -97.5 -38t-37.5 -107v-68h231v-217h-231v-807h-240v807h-477v-807h-239v807h-134z M1581 1184v250h264v-250h-264zM1593 0v1024h240v-1024h-240z" />
<glyph unicode="&#xfb04;" horiz-adv-x="2000" d="M61 807v217h134v51q0 183 87 283t255 100q79 0 129 -20v-228q-44 27 -97 27q-60 0 -97.5 -38t-37.5 -107v-68h477v51q0 183 87 283t255 100q79 0 129 -20v-228q-44 27 -96 27q-60 0 -97.5 -38t-37.5 -107v-68h231v-217h-231v-807h-240v807h-477v-807h-239v807h-134z M1597 0v1464h240v-1464h-240z" />
<glyph horiz-adv-x="2048" />
<glyph horiz-adv-x="2048" />
<glyph unicode="&#xd;" horiz-adv-x="2048" />
<glyph unicode=" "  horiz-adv-x="512" />
<glyph unicode="&#x09;" horiz-adv-x="512" />
<glyph unicode="&#xa0;" horiz-adv-x="512" />
<glyph unicode="!" horiz-adv-x="575" d="M162 0v244h252v-244h-252zM168 410v1024h240v-1024h-240z" />
<glyph unicode="&#x22;" horiz-adv-x="841" d="M147 903v531h218v-531h-218zM477 903v531h217v-531h-217z" />
<glyph unicode="#" d="M20 403v185h244l51 252h-200v188h239l82 406h203l-82 -406h156l82 406h202l-82 -406h201v-188h-239l-52 -252h197v-185h-236l-81 -403h-203l82 403h-156l-82 -403h-203l82 403h-205zM467 588h156l51 252h-156z" />
<glyph unicode="$" d="M90 328l229 88q26 -95 97.5 -150t165.5 -55q86 0 150.5 52t64.5 134q0 140 -187 236q-128 68 -184 100q-115 61 -179.5 157.5t-64.5 207.5q0 137 80.5 232t218.5 120v168h205v-174q92 -24 156 -86t112 -164l-219 -115q-55 144 -168 144q-58 0 -96.5 -34.5t-38.5 -82.5 q0 -54 32 -95t116 -85q175 -95 190 -103q277 -155 277 -428q0 -154 -97.5 -268t-263.5 -143v-168h-205v168q-148 22 -243 106.5t-148 237.5z" />
<glyph unicode="%" horiz-adv-x="1914" d="M61 1024q0 199 92.5 311.5t254.5 112.5q160 0 252 -112.5t92 -311.5t-92 -311.5t-252 -112.5q-162 0 -254.5 112.5t-92.5 311.5zM260 1024q0 -119 39 -179.5t109 -60.5t107.5 60t37.5 180t-38 180t-107 60q-71 0 -109.5 -60t-38.5 -180zM418 25l923 1474l156 -90 l-924 -1475zM1163 410q0 199 92 311.5t254 112.5q160 0 252 -112.5t92 -311.5t-92 -311.5t-252 -112.5q-162 0 -254 112.5t-92 311.5zM1362 410q0 -119 38.5 -179.5t108.5 -60.5t108 60t38 180t-38.5 179.5t-107.5 59.5q-147 0 -147 -239z" />
<glyph unicode="&#x26;" horiz-adv-x="1529" d="M90 436q0 133 68 244.5t190 177.5q-53 41 -87 111.5t-34 146.5q0 142 109 242t272 100t273 -99.5t110 -236.5q0 -120 -71.5 -210t-217.5 -134l240 -254q15 113 0 209h236q22 -251 -43 -414q34 -36 140.5 -148t164.5 -171h-316l-112 125q-153 -150 -404 -150 q-227 0 -372.5 133t-145.5 328zM340 453q0 -104 75.5 -173t192.5 -69q152 0 240 94l-356 393q-72 -32 -112 -97t-40 -148zM457 1096q0 -62 43.5 -107t107.5 -45t108 45t44 107q0 63 -44.5 106t-107.5 43q-64 0 -107.5 -43t-43.5 -106z" />
<glyph unicode="'" horiz-adv-x="512" d="M147 903v531h218v-531h-218z" />
<glyph unicode="(" horiz-adv-x="731" d="M109 594q0 267 93.5 536t274.5 498l182 -143q-161 -198 -242 -428.5t-81 -462.5q0 -226 81.5 -458t239.5 -433l-184 -143q-178 229 -271 498.5t-93 535.5z" />
<glyph unicode=")" horiz-adv-x="731" d="M72 1485l182 143q182 -228 275.5 -497t93.5 -537q0 -266 -93.5 -535.5t-271.5 -498.5l-184 143q158 202 239.5 432.5t81.5 458.5q0 233 -81 462.5t-242 428.5z" />
<glyph unicode="*" horiz-adv-x="888" d="M86 961l213 108l-213 109l86 147l199 -129l-13 238h172l-12 -238l199 129l86 -147l-213 -109l213 -108l-86 -148l-201 131l14 -239h-172l7 229l-193 -121z" />
<glyph unicode="+" horiz-adv-x="1134" d="M133 608v217h324v324h221v-324h323v-217h-323v-323h-221v323h-324z" />
<glyph unicode="," horiz-adv-x="583" d="M98 -266l111 518h276l-204 -518h-183z" />
<glyph unicode="-" horiz-adv-x="921" d="M154 403v234h614v-234h-614z" />
<glyph unicode="." horiz-adv-x="620" d="M184 0v244h252v-244h-252z" />
<glyph unicode="/" horiz-adv-x="1097" d="M0 -72l866 1577h232l-867 -1577h-231z" />
<glyph unicode="0" d="M27 717q0 344 150 542.5t392 198.5t392.5 -198.5t150.5 -542.5q0 -343 -150.5 -542.5t-392.5 -199.5t-392 199.5t-150 542.5zM274 717q0 -246 79.5 -376t215.5 -130q135 0 213 129.5t78 376.5q0 245 -79.5 375.5t-211.5 130.5t-213.5 -131t-81.5 -375z" />
<glyph unicode="1" d="M197 0v233h266v932l-246 -86v219l283 136h213v-1201h266v-233h-782z" />
<glyph unicode="2" d="M129 1116q39 154 152.5 248t287.5 94q170 0 293 -117t123 -284q0 -126 -58.5 -230.5t-181.5 -240.5l-319 -353h578v-233h-871v229l412 482q105 122 147.5 191.5t42.5 141.5q0 74 -52.5 126.5t-125.5 52.5q-80 0 -128 -50t-62 -133z" />
<glyph unicode="3" d="M88 336l227 72q21 -88 85.5 -142.5t156.5 -54.5q102 0 172 70t70 178q0 100 -69 170.5t-177 77.5l-184 14v178l286 301h-479v234h787v-213l-322 -326q182 -13 295 -138t113 -308q0 -207 -142 -340.5t-354 -133.5q-186 0 -306 97.5t-159 263.5z" />
<glyph unicode="4" d="M63 293v213l605 928h213v-912h192v-229h-192v-293h-250v293h-568zM324 522h307v477z" />
<glyph unicode="5" d="M84 336l227 72q19 -88 82.5 -142.5t155.5 -54.5q116 0 185 74.5t69 193.5t-68.5 194t-185.5 75q-73 0 -130 -36t-79 -96l-213 50l96 768h735v-234h-550l-52 -305q34 39 99.5 63.5t136.5 24.5q200 0 330.5 -144t130.5 -360q0 -220 -136.5 -362t-359.5 -142 q-188 0 -311.5 98t-161.5 263z" />
<glyph unicode="6" d="M82 455q0 152 133 374l375 605h289l-365 -533q41 8 90 8q119 0 222 -56.5t166 -161.5t63 -236q0 -204 -140.5 -342t-347.5 -138t-346 138t-139 342zM334 455q0 -104 66.5 -175t166.5 -71q98 0 166 71t68 175q0 103 -68 174t-166 71q-99 0 -166 -71t-67 -174z" />
<glyph unicode="7" d="M125 0l620 1200h-616v234h885v-222l-617 -1212h-272z" />
<glyph unicode="8" d="M90 426q0 112 53 210.5t148 151.5q-56 37 -95.5 118t-39.5 159q0 165 115.5 279t295.5 114t297 -114.5t117 -278.5q0 -79 -39 -159.5t-96 -117.5q95 -53 148 -151.5t53 -210.5q0 -190 -136 -320.5t-344 -130.5t-342.5 130.5t-134.5 320.5zM340 436q0 -92 63.5 -158.5 t163.5 -66.5t165 66.5t65 158.5q0 89 -65.5 157.5t-164.5 68.5t-163 -67.5t-64 -158.5zM401 1055q0 -68 48 -117t118 -49q71 0 119.5 49t48.5 117q0 69 -49 118.5t-119 49.5t-118 -49t-48 -119z" />
<glyph unicode="9" d="M82 975q0 204 140 343.5t347 139.5t346.5 -139.5t139.5 -343.5q0 -157 -133 -379l-375 -596h-289l365 524q-39 -8 -88 -8q-89 0 -171 34t-144.5 93t-100 146t-37.5 186zM336 975q0 -103 67.5 -176.5t165.5 -73.5q99 0 166.5 73t67.5 177q0 105 -67.5 177.5t-166.5 72.5 q-98 0 -165.5 -72.5t-67.5 -177.5z" />
<glyph unicode=":" horiz-adv-x="620" d="M184 0v244h252v-244h-252zM184 780v244h252v-244h-252z" />
<glyph unicode=";" horiz-adv-x="702" d="M158 -266l110 518h277l-205 -518h-182zM281 780v244h251v-244h-251z" />
<glyph unicode="&#x3c;" horiz-adv-x="1134" d="M133 604v225l868 400v-232l-622 -274l622 -277v-241z" />
<glyph unicode="=" horiz-adv-x="1134" d="M133 391v217h868v-217h-868zM133 825v217h868v-217h-868z" />
<glyph unicode="&#x3e;" horiz-adv-x="1134" d="M133 205v231l623 275l-623 276v242l868 -400v-225z" />
<glyph unicode="?" horiz-adv-x="911" d="M25 1141q40 154 153.5 235.5t272.5 81.5q190 0 313 -122.5t123 -301.5q0 -162 -86.5 -272t-229.5 -135v-217h-223v411l113 8q82 6 129 61t47 144q0 78 -52 133.5t-136 55.5q-77 0 -128.5 -43t-70.5 -119zM334 0v244h252v-244h-252z" />
<glyph unicode="@" horiz-adv-x="1892" d="M109 582q2 175 66 327t176 262.5t273.5 174t350.5 63.5q228 0 412.5 -92.5t290.5 -261t106 -381.5q0 -227 -106 -363.5t-259 -136.5q-140 0 -211 127q-30 -50 -108 -88.5t-154 -38.5q-186 0 -305 119.5t-119 290.5q0 168 112.5 288.5t274.5 120.5q66 0 132.5 -30 t101.5 -72l20 84h187v-520q0 -88 84 -88q57 0 104 85t47 224q0 110 -43 209.5t-120.5 174t-193 118t-251.5 43.5q-146 0 -272 -51t-212.5 -137.5t-135.5 -203.5t-50 -247q-1 -105 27.5 -200t84.5 -174t134.5 -137t184 -90t227.5 -32q267 0 448 133l111 -158 q-120 -85 -250.5 -124.5t-308.5 -39.5q-196 0 -358.5 62.5t-272 172.5t-168.5 261t-57 326zM739 584q0 -90 57 -152.5t142 -62.5t142 62.5t57 152.5t-57 152.5t-142 62.5q-87 0 -143 -62t-56 -153z" />
<glyph unicode="A" horiz-adv-x="1351" d="M8 0l535 1434h266l534 -1434h-270l-119 322h-561l-119 -322h-266zM471 551h406l-201 594z" />
<glyph unicode="B" horiz-adv-x="1302" d="M184 0v1434h486q182 0 297.5 -103.5t115.5 -263.5q0 -86 -44.5 -156t-98.5 -106q49 -16 93.5 -46t84 -74.5t63 -109t23.5 -139.5q0 -194 -130.5 -315t-336.5 -121h-553zM434 233h283q105 0 171 59.5t66 156.5t-66 156t-171 59h-283v-431zM434 889h230q72 0 119.5 43 t47.5 110q0 70 -51.5 114t-130.5 44h-215v-311z" />
<glyph unicode="C" horiz-adv-x="1488" d="M109 717q0 212 87 381t246 264.5t363 95.5q217 0 374.5 -90t239.5 -260l-221 -113q-51 109 -150 168.5t-243 59.5q-122 0 -223.5 -64.5t-161.5 -181t-60 -260.5q0 -220 127.5 -363t317.5 -143q143 0 244.5 60.5t154.5 164.5l219 -110q-80 -165 -242.5 -258t-375.5 -93 q-205 0 -364.5 96.5t-245.5 265t-86 380.5z" />
<glyph unicode="D" horiz-adv-x="1452" d="M184 0v1434h365q183 0 333 -53t250.5 -147.5t155.5 -226.5t55 -290q0 -212 -99 -375t-279.5 -252.5t-415.5 -89.5h-365zM434 233h133q240 0 381.5 128.5t141.5 355.5t-140 355t-383 128h-133v-967z" />
<glyph unicode="E" horiz-adv-x="1146" d="M184 0v1434h840v-234h-590v-340h549v-233h-549v-394h590v-233h-840z" />
<glyph unicode="F" horiz-adv-x="1110" d="M184 0v1434h840v-234h-590v-340h549v-233h-549v-627h-250z" />
<glyph unicode="G" horiz-adv-x="1599" d="M109 717q0 218 86.5 386.5t247 261.5t370.5 93q200 0 354 -86.5t242 -224.5l-197 -150q-63 99 -163 162.5t-236 63.5q-197 0 -325 -142.5t-128 -363.5q0 -148 59 -265t155.5 -179t211.5 -62q176 0 286.5 92t121.5 244h-346v233h604v-780h-186l-43 172q-78 -95 -198 -146 t-257 -51q-192 0 -342.5 94.5t-233.5 263.5t-83 384z" />
<glyph unicode="H" horiz-adv-x="1425" d="M184 0v1434h250v-574h557v574h250v-1434h-250v627h-557v-627h-250z" />
<glyph unicode="I" horiz-adv-x="618" d="M184 0v1434h250v-1434h-250z" />
<glyph unicode="J" horiz-adv-x="944" d="M-29 188l197 138q59 -115 178 -115q76 0 124 55t48 164v1004h254v-1004q0 -213 -116.5 -334t-307.5 -121q-128 0 -223 56t-154 157z" />
<glyph unicode="K" horiz-adv-x="1226" d="M184 0v1434h250v-590l475 590h299l-549 -686l568 -748h-312l-481 641v-641h-250z" />
<glyph unicode="L" horiz-adv-x="993" d="M184 0v1434h250v-1201h539v-233h-789z" />
<glyph unicode="M" horiz-adv-x="1810" d="M184 0v1434h326l397 -1088l393 1088h326v-1434h-250v952l-356 -952h-229l-357 952v-952h-250z" />
<glyph unicode="N" horiz-adv-x="1507" d="M184 0v1434h269l620 -1028v1028h250v-1434h-264l-625 1004v-1004h-250z" />
<glyph unicode="O" horiz-adv-x="1671" d="M109 717q0 156 54.5 293t150 235.5t231 155.5t291.5 57t291.5 -57t231 -155.5t150 -235.5t54.5 -293q0 -154 -56 -291.5t-152.5 -236.5t-231.5 -156.5t-287 -57.5t-287 57.5t-231.5 156.5t-152.5 236.5t-56 291.5zM360 717q0 -144 64 -261t173 -182t239 -65 q199 0 335 144.5t136 363.5q0 108 -38 203.5t-101.5 161.5t-150 104.5t-181.5 38.5t-182 -38.5t-152 -104.5t-103.5 -161.5t-38.5 -203.5z" />
<glyph unicode="P" horiz-adv-x="1138" d="M184 0v1434h463q191 0 313.5 -117t122.5 -295q0 -177 -122 -290.5t-314 -113.5h-213v-618h-250zM434 844h199q94 0 146 53.5t52 124.5q0 73 -52 125.5t-146 52.5h-199v-356z" />
<glyph unicode="Q" horiz-adv-x="1671" d="M109 717q0 156 54.5 293t150 235.5t231 155.5t291.5 57t291.5 -57t231 -155.5t150 -235.5t54.5 -293q0 -283 -179 -494l146 -160l-170 -147l-141 166q-175 -107 -383 -107q-152 0 -287 57.5t-231.5 156.5t-152.5 236.5t-56 291.5zM360 717q0 -218 138.5 -362t337.5 -144 q122 0 227 57l-152 183l156 127l150 -168q92 136 92 307q0 144 -65 261t-173 181t-235 64q-95 0 -182 -38t-152 -104t-103.5 -161t-38.5 -203z" />
<glyph unicode="R" horiz-adv-x="1228" d="M184 0v1434h494q192 0 309 -106.5t117 -283.5q0 -140 -91.5 -240t-240.5 -130l406 -674h-283l-391 664h-70v-664h-250zM434 889h225q92 0 142.5 44t50.5 111q0 70 -51 113t-142 43h-225v-311z" />
<glyph unicode="S" horiz-adv-x="1099" d="M57 328l230 88q26 -95 97 -150t165 -55q86 0 150.5 52t64.5 134q0 141 -186 236q-141 75 -185 100q-115 61 -179 157.5t-64 207.5q0 158 106 259t279 101q142 0 234 -66t153 -198l-220 -115q-55 144 -167 144q-58 0 -97 -34.5t-39 -82.5q0 -54 32 -95t116 -85 q175 -95 190 -103q277 -155 277 -428q0 -177 -126 -298.5t-333 -121.5q-194 0 -315 87.5t-183 265.5z" />
<glyph unicode="T" horiz-adv-x="1075" d="M25 1200v234h1026v-234h-404v-1200h-250v1200h-372z" />
<glyph unicode="U" horiz-adv-x="1495" d="M164 598v836h252v-789q0 -223 87 -328.5t245 -105.5q329 0 329 434v789h254v-836q0 -289 -153.5 -456t-429.5 -167t-430 167.5t-154 455.5z" />
<glyph unicode="V" horiz-adv-x="1269" d="M8 1434h268l357 -1110l358 1110h271l-492 -1434h-274z" />
<glyph unicode="W" horiz-adv-x="1835" d="M8 1434h268l383 -1115l144 406l-254 709h231l138 -392l137 392h231l-254 -709l144 -406l383 1115h268l-520 -1434h-252l-137 403l-138 -403h-254z" />
<glyph unicode="X" horiz-adv-x="1275" d="M0 0l494 756l-439 678h285l297 -465l299 465h285l-441 -678l496 -756h-289l-350 543l-348 -543h-289z" />
<glyph unicode="Y" horiz-adv-x="1130" d="M-16 1434h274l307 -555l307 555h275l-457 -805v-629h-250v629z" />
<glyph unicode="Z" horiz-adv-x="1267" d="M86 0v213l762 987h-721v234h1034v-213l-755 -988h776v-233h-1096z" />
<glyph unicode="[" horiz-adv-x="684" d="M184 -410v2044h418v-200h-196v-1643h196v-201h-418z" />
<glyph unicode="\" horiz-adv-x="1097" d="M0 1505h231l867 -1577h-232z" />
<glyph unicode="]" horiz-adv-x="684" d="M82 -209h197v1643h-197v200h418v-2044h-418v201z" />
<glyph unicode="^" horiz-adv-x="1134" d="M96 565l359 869h225l358 -869h-221l-246 641l-245 -641h-230z" />
<glyph unicode="_" horiz-adv-x="1310" d="M154 -61h1003v-218h-1003v218z" />
<glyph unicode="`" horiz-adv-x="1048" d="M307 1434h295l139 -260h-227z" />
<glyph unicode="a" horiz-adv-x="1312" d="M86 512q0 148 65 271t181.5 194.5t261.5 71.5q97 0 183.5 -37.5t133.5 -96.5l29 109h209v-1024h-209l-29 109q-44 -58 -131.5 -96t-185.5 -38q-145 0 -261.5 71.5t-181.5 194.5t-65 271zM332 512q0 -137 86 -228t217 -91q130 0 215.5 91t85.5 228t-85.5 228t-215.5 91 q-131 0 -217 -91t-86 -228z" />
<glyph unicode="b" horiz-adv-x="1310" d="M164 0v1464h239v-549q57 59 142 96.5t176 37.5q152 0 268 -72t176 -193.5t60 -271.5q0 -148 -66 -271t-184 -194.5t-264 -71.5q-96 0 -182 39.5t-130 94.5l-26 -109h-209zM377 512q0 -137 85.5 -228t215.5 -91q128 0 215.5 91.5t87.5 227.5q0 139 -80 229t-213 90 q-131 0 -221 -91.5t-90 -227.5z" />
<glyph unicode="c" horiz-adv-x="1146" d="M86 512q0 110 38.5 209t106 171t164.5 114.5t209 42.5q178 0 298 -78t171 -213l-217 -90q-36 79 -95.5 121t-156.5 42q-125 0 -198.5 -89.5t-73.5 -229.5t73 -229.5t199 -89.5q180 0 254 161l213 -92q-55 -127 -171 -207t-296 -80q-112 0 -209 42.5t-164.5 114.5 t-106 171t-38.5 209z" />
<glyph unicode="d" horiz-adv-x="1310" d="M86 512q0 227 145 382t369 155q95 0 179 -39t128 -95v549h240v-1464h-209l-27 109q-44 -56 -130 -95t-181 -39q-224 0 -369 155t-145 382zM330 512q0 -137 86 -228t217 -91q130 0 215.5 91t85.5 228t-85.5 228t-215.5 91q-131 0 -217 -91t-86 -228z" />
<glyph unicode="e" horiz-adv-x="1175" d="M86 512q0 149 63.5 271t180.5 194t264 72q231 0 367.5 -144.5t136.5 -372.5q0 -54 -6 -92h-768q6 -113 85 -180t203 -67q87 0 146 37.5t106 117.5l201 -88q-58 -130 -183 -207.5t-290 -77.5q-153 0 -269 70.5t-176.5 191.5t-60.5 275zM324 621h532q-6 93 -79.5 151.5 t-180.5 58.5q-109 0 -187 -59.5t-85 -150.5z" />
<glyph unicode="f" horiz-adv-x="716" d="M61 807v217h134v51q0 183 87 283t255 100q79 0 129 -20v-228q-44 27 -97 27q-60 0 -97.5 -38t-37.5 -107v-68h232v-217h-232v-807h-239v807h-134z" />
<glyph unicode="g" horiz-adv-x="1093" d="M57 0q0 122 66.5 226t159.5 149q-61 40 -107.5 119t-46.5 163q0 166 124 279t294 113h467v-146l-160 -35q100 -91 100 -231q0 -84 -45.5 -156.5t-107.5 -105.5q93 -45 159 -149t66 -226q0 -187 -138.5 -310.5t-340.5 -123.5q-132 0 -244 55.5t-179 155.5t-67 223zM281 16 q0 -101 77 -171t189 -70q111 0 183.5 69.5t72.5 171.5t-75 173t-181 71q-107 0 -186.5 -71.5t-79.5 -172.5zM346 649q0 -79 57.5 -133.5t143.5 -54.5q87 0 138.5 53.5t51.5 134.5q0 79 -53 135t-137 56q-83 0 -142 -57t-59 -134z" />
<glyph unicode="h" horiz-adv-x="1261" d="M164 0v1464h239v-583q39 72 126 120t182 48q197 0 300 -113.5t103 -329.5v-606h-240v549q0 137 -55 209.5t-160 72.5q-110 0 -183 -107.5t-73 -305.5v-418h-239z" />
<glyph unicode="i" horiz-adv-x="559" d="M147 1184v250h265v-250h-265zM160 0v1024h239v-1024h-239z" />
<glyph unicode="j" horiz-adv-x="559" d="M147 1184v250h265v-250h-265zM160 -434v1458h239v-1411z" />
<glyph unicode="k" horiz-adv-x="1099" d="M164 0v1464h239v-825l324 385h309l-432 -481l459 -543h-305l-355 444v-444h-239z" />
<glyph unicode="l" horiz-adv-x="567" d="M164 0v1464h239v-1464h-239z" />
<glyph unicode="m" horiz-adv-x="1849" d="M164 0v1024h209l28 -143q41 73 124.5 120.5t179.5 47.5q119 0 191 -41.5t108 -126.5q41 72 125 120t180 48q196 0 294.5 -113t98.5 -330v-606h-240v600q0 231 -168 231q-108 0 -174.5 -105t-66.5 -308v-418h-240v600q0 231 -168 231q-108 0 -175 -105t-67 -308v-418h-239 z" />
<glyph unicode="n" horiz-adv-x="1247" d="M164 0v1024h209l28 -143q39 73 123 120.5t181 47.5q197 0 296 -113t99 -330v-606h-240v549q0 282 -205 282q-112 0 -182 -105.5t-70 -307.5v-418h-239z" />
<glyph unicode="o" horiz-adv-x="1253" d="M86 512q0 111 41 210t112.5 171t172.5 114t215 42q231 0 385.5 -155.5t154.5 -381.5t-154.5 -381.5t-385.5 -155.5q-114 0 -215 42t-172.5 114t-112.5 171t-41 210zM332 512q0 -138 82 -228.5t213 -90.5q130 0 212.5 90.5t82.5 228.5t-82.5 228.5t-212.5 90.5 q-131 0 -213 -90.5t-82 -228.5z" />
<glyph unicode="p" horiz-adv-x="1310" d="M164 -410v1434h209l26 -109q54 59 144.5 96.5t187.5 37.5q144 0 258 -72t175 -194t61 -271q0 -227 -145 -382t-369 -155q-95 0 -179.5 39t-128.5 95v-519h-239zM377 512q0 -137 85.5 -228t215.5 -91q131 0 217 91t86 228q0 136 -86.5 227.5t-212.5 91.5 q-131 0 -218 -91.5t-87 -227.5z" />
<glyph unicode="q" horiz-adv-x="1310" d="M86 512q0 148 66 271t184 194.5t264 71.5q95 0 181 -39t130 -95l27 109h209v-1434h-240v519q-57 -59 -141.5 -96.5t-175.5 -37.5q-152 0 -268 72t-176 193.5t-60 271.5zM330 512q0 -139 80 -229t213 -90q131 0 221 91.5t90 227.5q0 137 -85.5 228t-215.5 91 q-128 0 -215.5 -91.5t-87.5 -227.5z" />
<glyph unicode="r" horiz-adv-x="802" d="M164 0v1024h209l26 -131q44 74 112.5 115t147.5 41q70 0 138 -21l-49 -246q-83 19 -127 19q-103 0 -160.5 -69t-57.5 -195v-537h-239z" />
<glyph unicode="s" horiz-adv-x="905" d="M55 246l187 86q54 -148 200 -148q74 0 115 35.5t41 83.5q0 51 -32.5 83t-112.5 63l-146 55q-86 33 -133 107t-47 165q0 113 88 193t223 80q106 0 185.5 -49.5t124.5 -139.5l-187 -115q-15 42 -48.5 68.5t-72.5 26.5q-41 0 -67.5 -22.5t-26.5 -55.5q0 -66 90 -98l152 -56 q231 -84 231 -311q0 -139 -107 -230.5t-270 -91.5q-142 0 -241.5 72.5t-145.5 198.5z" />
<glyph unicode="t" horiz-adv-x="669" d="M55 807v217h133v274l240 48v-322h231v-217h-231v-807h-240v807h-133z" />
<glyph unicode="u" horiz-adv-x="1267" d="M147 434v590h240v-561q0 -270 215 -270q121 0 191.5 101.5t70.5 289.5v440h240v-1024h-209l-29 143q-39 -73 -126.5 -120.5t-184.5 -47.5q-203 0 -305.5 118t-102.5 341z" />
<glyph unicode="v" horiz-adv-x="1024" d="M10 1024h242l260 -774l260 774h242l-377 -1024h-250z" />
<glyph unicode="w" horiz-adv-x="1560" d="M20 1024h246l221 -772l197 530l-82 242h232l241 -770l219 770h246l-334 -1024h-252l-174 512l-176 -512h-248z" />
<glyph unicode="x" horiz-adv-x="1009" d="M10 0l359 539l-328 485h264l199 -305l198 305h267l-332 -485l362 -539h-268l-227 356l-228 -356h-266z" />
<glyph unicode="y" horiz-adv-x="1026" d="M0 1024h250l268 -709l250 709h252l-541 -1434h-243l157 439z" />
<glyph unicode="z" horiz-adv-x="940" d="M57 0v197l498 610h-457v217h760v-197l-502 -610h516v-217h-815z" />
<glyph unicode="{" horiz-adv-x="768" d="M82 520v238h43q87 0 125.5 29t38.5 104v366q0 192 96.5 284.5t300.5 92.5h21v-200h-21q-176 0 -176 -177v-395q0 -96 -46 -151.5t-126 -71.5q80 -16 126 -71.5t46 -149.5v-451q0 -176 176 -176h21v-201h-21q-204 0 -300.5 92.5t-96.5 284.5v420q0 75 -38.5 104t-125.5 29 h-43z" />
<glyph unicode="|" horiz-adv-x="573" d="M174 -369v1874h225v-1874h-225z" />
<glyph unicode="}" horiz-adv-x="768" d="M61 -209h21q176 0 176 176v451q0 94 46 149.5t126 71.5q-80 16 -126 71.5t-46 151.5v395q0 177 -176 177h-21v200h21q204 0 300.5 -92.5t96.5 -284.5v-366q0 -75 38.5 -104t125.5 -29h43v-238h-43q-87 0 -125.5 -29t-38.5 -104v-420q0 -192 -96.5 -284.5t-300.5 -92.5 h-21v201z" />
<glyph unicode="~" horiz-adv-x="1134" d="M133 547q0 160 72.5 249t193.5 89q60 0 123 -33.5t114 -66.5t81 -33q51 0 68.5 34t17.5 99h198q0 -160 -72.5 -249t-191.5 -89q-55 0 -107 21t-84.5 45.5t-67 45.5t-58.5 21q-88 0 -88 -133h-199z" />
<glyph unicode="&#xa1;" horiz-adv-x="575" d="M156 774v250h264v-250h-264zM168 -410v1024h240v-1024h-240z" />
<glyph unicode="&#xa2;" d="M86 512q0 194 110 339t291 185v172h205v-166q143 -18 240 -92.5t141 -191.5l-217 -90q-36 79 -95.5 121t-156.5 42q-125 0 -198.5 -89.5t-73.5 -229.5t73 -229.5t199 -89.5q180 0 254 161l213 -92q-47 -109 -141.5 -185t-237.5 -95v-166h-205v172q-181 40 -291 185 t-110 339z" />
<glyph unicode="&#xa3;" d="M82 610v205h139v227q0 180 119 298t301 118q138 0 244 -67t151 -177l-200 -114q-21 56 -69 90.5t-112 34.5q-83 0 -133.5 -58.5t-50.5 -167.5v-184h358v-205h-358v-377h551v-233h-920v233h119v377h-139z" />
<glyph unicode="&#xa4;" horiz-adv-x="1134" d="M78 383l160 160q-33 84 -33 174t33 174l-160 160l158 155l147 -147q82 45 186 45q103 0 185 -45l147 147l158 -155l-160 -160q33 -84 33 -174t-33 -174l160 -160l-156 -158l-149 150q-80 -47 -185 -47q-106 0 -186 47l-150 -150zM408 717q0 -96 44 -150.5t117 -54.5 t116.5 54.5t43.5 150.5t-44 149.5t-116 53.5t-116.5 -53.5t-44.5 -149.5z" />
<glyph unicode="&#xa5;" d="M37 1434h270l250 -455l272 455h269l-287 -455h121v-205h-250v-115h250v-204h-250v-455h-250v455h-248v204h248v115h-248v205h125z" />
<glyph unicode="&#xa6;" horiz-adv-x="573" d="M174 -369v793h225v-793h-225zM174 711v794h225v-794h-225z" />
<glyph unicode="&#xa7;" horiz-adv-x="1206" d="M143 629q0 167 146 286q-51 85 -51 183q0 158 106 259t279 101q143 0 236 -66.5t151 -197.5l-219 -115q-55 144 -168 144q-58 0 -97 -34.5t-39 -82.5q0 -51 33.5 -92t114.5 -88l182 -105q136 -79 191 -180t55 -246q0 -159 -143 -280q49 -93 49 -189q0 -160 -109.5 -260 t-296.5 -100q-284 0 -407 264l219 115q23 -62 73 -103t115 -41t110.5 34.5t45.5 82.5q0 55 -32.5 100.5t-115.5 90.5l-174 100q-254 148 -254 420zM393 627q0 -67 36.5 -118.5t127.5 -105.5l168 -98q16 -8 37 -22q51 48 51 114q0 73 -32 128t-124 108l-202 117 q-62 -55 -62 -123z" />
<glyph unicode="&#xa8;" horiz-adv-x="1048" d="M248 1200v201h213v-201h-213zM588 1200v201h213v-201h-213z" />
<glyph unicode="&#xa9;" horiz-adv-x="1724" d="M123 717q0 208 93 377t262.5 266.5t383.5 97.5t384 -97.5t263 -266.5t93 -377q0 -207 -95.5 -376.5t-265.5 -267.5t-379 -98t-379 98t-265 267.5t-95 376.5zM279 717q0 -172 76.5 -307.5t209.5 -210t297 -74.5q123 0 231 43.5t186 120.5t123.5 188t45.5 240t-45.5 240 t-123.5 188t-186 120.5t-231 43.5q-164 0 -297 -74.5t-209.5 -210t-76.5 -307.5zM440 717q0 120 53.5 221t150.5 161t216 60q139 0 235.5 -65.5t141.5 -165.5l-195 -90q-28 57 -70.5 86.5t-111.5 29.5q-91 0 -148 -68.5t-57 -168.5q0 -101 56.5 -169.5t148.5 -68.5 q128 0 182 115l195 -88q-45 -100 -142 -166t-235 -66q-180 0 -300 129.5t-120 313.5z" />
<glyph unicode="&#xaa;" horiz-adv-x="931" d="M82 1055q0 110 48.5 192.5t122 122t157.5 39.5q62 0 113 -21t81 -53l19 58h188v-676h-180l-27 61q-69 -78 -203 -78q-133 0 -226 99t-93 256zM143 420v174h668v-174h-668zM289 1055q0 -78 46 -126t118 -48q69 0 115 48t46 126t-46 126t-115 48q-72 0 -118 -48t-46 -126z " />
<glyph unicode="&#xab;" horiz-adv-x="972" d="M74 532l202 349h238l-205 -349l205 -348h-238zM459 532l203 349h237l-205 -349l205 -348h-237z" />
<glyph unicode="&#xac;" horiz-adv-x="1134" d="M133 608v217h868v-620h-221v403h-647z" />
<glyph unicode="&#xad;" horiz-adv-x="921" d="M154 403v234h614v-234h-614z" />
<glyph unicode="&#xae;" horiz-adv-x="858" d="M57 1147q0 160 104 266.5t267 106.5q164 0 268.5 -106.5t104.5 -266.5q0 -159 -106 -266t-267 -107q-159 0 -265 107t-106 266zM150 1147q0 -123 80 -204t198 -81q120 0 200.5 81t80.5 204t-80.5 204t-200.5 81q-118 0 -198 -81t-80 -204zM293 956v390h153 q60 0 101 -39.5t41 -96.5q0 -46 -25.5 -80.5t-66.5 -46.5l98 -127h-115l-86 123h-4v-123h-96zM389 1163h49q22 0 35.5 12.5t13.5 32.5t-14 32.5t-35 12.5h-49v-90z" />
<glyph unicode="&#xaf;" horiz-adv-x="1048" d="M217 1219v180h614v-180h-614z" />
<glyph unicode="&#xb0;" horiz-adv-x="788" d="M90 1151q0 127 87 214t218 87q130 0 216.5 -87t86.5 -214q0 -128 -86.5 -215.5t-216.5 -87.5q-131 0 -218 87.5t-87 215.5zM260 1151q0 -64 37.5 -104.5t97.5 -40.5q59 0 96 40.5t37 104.5q0 63 -37 103t-96 40q-60 0 -97.5 -40t-37.5 -103z" />
<glyph unicode="&#xb1;" horiz-adv-x="1134" d="M133 164v217h324v227h-324v217h324v324h221v-324h323v-217h-323v-227h323v-217h-868z" />
<glyph unicode="&#xb2;" horiz-adv-x="739" d="M72 717v174q11 11 39 36t89 78.5t128 114.5q65 53 93 86t28 68q0 34 -26.5 57t-64.5 23q-39 0 -63 -27.5t-33 -66.5l-178 55q15 64 47.5 114.5t95 85.5t146.5 35q117 0 195.5 -71.5t78.5 -175.5q0 -79 -31.5 -135t-101.5 -119l-178 -156h315v-176h-579z" />
<glyph unicode="&#xb3;" horiz-adv-x="755" d="M57 913l181 66q11 -37 43 -62.5t77 -25.5q53 0 86 27t33 69q0 34 -30 63t-85 35l-120 15v131l151 129h-280v176h518v-164l-176 -143q98 -18 159.5 -79.5t61.5 -156.5q0 -134 -87.5 -212.5t-226.5 -78.5q-127 0 -202.5 57.5t-102.5 153.5z" />
<glyph unicode="&#xb4;" horiz-adv-x="1048" d="M307 1174l139 260h295l-206 -260h-228z" />
<glyph unicode="&#xb5;" horiz-adv-x="1284" d="M164 -410v1434h239v-561q0 -270 215 -270q121 0 192 101.5t71 289.5v440h239v-1024h-209l-28 143q-39 -72 -126.5 -120t-185.5 -48q-102 0 -168 56v-441h-239z" />
<glyph unicode="&#xb6;" horiz-adv-x="1116" d="M102 1124q0 133 92 221.5t236 88.5h184v-1434h-184v819q-144 0 -236 85.5t-92 219.5zM748 0v1434h184v-1434h-184z" />
<glyph unicode="&#xb7;" horiz-adv-x="620" d="M184 473v244h252v-244h-252z" />
<glyph unicode="&#xb8;" horiz-adv-x="1050" d="M328 -418l65 109q46 -37 99 -37q41 0 69.5 20t28.5 54q0 33 -27.5 53t-68.5 20q-47 0 -84 -22l-66 47l113 211h147l-88 -123q84 11 145.5 -43.5t61.5 -142.5q0 -87 -61 -143t-168 -56q-96 0 -166 53z" />
<glyph unicode="&#xb9;" horiz-adv-x="542" d="M76 1249v191l162 96h176v-819h-199v602z" />
<glyph unicode="&#xba;" horiz-adv-x="897" d="M82 1055q0 156 105 255t262 99q156 0 260 -99t104 -255t-104 -255.5t-260 -99.5q-157 0 -262 99.5t-105 255.5zM143 420v174h609v-174h-609zM289 1055q0 -75 45.5 -123.5t114.5 -48.5q68 0 112.5 48.5t44.5 123.5t-44.5 123.5t-112.5 48.5q-69 0 -114.5 -48.5 t-45.5 -123.5z" />
<glyph unicode="&#xbb;" horiz-adv-x="923" d="M49 184l205 348l-205 349h238l202 -349l-202 -348h-238zM434 184l205 348l-205 349h238l202 -349l-202 -348h-238z" />
<glyph unicode="&#xbc;" horiz-adv-x="1914" d="M190 1147v190l162 97h176v-820h-198v603zM354 25l924 1474l156 -90l-924 -1475zM1071 141v160l361 518h178v-508h116v-170h-116v-141h-199v141h-340zM1251 311h160v226z" />
<glyph unicode="&#xbd;" horiz-adv-x="1914" d="M223 1147v190l162 97h176v-820h-199v603zM346 25l924 1474l155 -90l-923 -1475zM1112 0v174q11 11 39 36t89 78.5t128 114.5q65 53 93 86t28 68q0 34 -26 57t-64 23q-39 0 -63 -27.5t-33 -66.5l-179 55q23 101 95 168.5t194 67.5q117 0 196 -72t79 -176q0 -78 -32 -134 t-102 -120l-178 -156h316v-176h-580z" />
<glyph unicode="&#xbe;" horiz-adv-x="1914" d="M125 811l180 66q11 -37 43.5 -63t77.5 -26q53 0 86 27.5t33 69.5q0 34 -30 63t-85 35l-121 14v131l152 129h-281v177h518v-164l-176 -144q98 -18 159.5 -79t61.5 -156q0 -134 -87 -212.5t-226 -78.5q-127 0 -202.5 57.5t-102.5 153.5zM438 25l924 1474l156 -90 l-924 -1475zM1135 141v160l360 518h178v-508h117v-170h-117v-141h-198v141h-340zM1315 311h160v226z" />
<glyph unicode="&#xbf;" horiz-adv-x="911" d="M25 -10q0 162 86 272t229 135v217h223v-411l-112 -8q-81 -6 -129 -62t-48 -143q0 -75 53 -132t136 -57q76 0 128 44t71 118l225 -80q-40 -154 -153.5 -235.5t-272.5 -81.5q-190 0 -313 122.5t-123 301.5zM326 780v244h252v-244h-252z" />
<glyph unicode="&#xc0;" horiz-adv-x="1351" d="M8 0l535 1434h266l534 -1434h-270l-119 322h-561l-119 -322h-266zM356 1823h295l140 -260h-228zM471 551h406l-201 594z" />
<glyph unicode="&#xc1;" horiz-adv-x="1351" d="M8 0l535 1434h266l534 -1434h-270l-119 322h-561l-119 -322h-266zM471 551h406l-201 594zM563 1563l139 260h295l-206 -260h-228z" />
<glyph unicode="&#xc2;" horiz-adv-x="1351" d="M8 0l535 1434h266l534 -1434h-270l-119 322h-561l-119 -322h-266zM356 1563l213 260h219l207 -260h-233l-86 131l-86 -131h-234zM471 551h406l-201 594z" />
<glyph unicode="&#xc3;" horiz-adv-x="1351" d="M8 0l535 1434h266l534 -1434h-270l-119 322h-561l-119 -322h-266zM371 1563q-22 118 33 189t151 71q44 0 89 -24t80.5 -48.5t55.5 -24.5q31 0 42 25t1 72h158q23 -120 -30 -190t-156 -70q-45 0 -88 24t-77.5 48t-58.5 24q-64 0 -43 -96h-157zM471 551h406l-201 594z" />
<glyph unicode="&#xc4;" horiz-adv-x="1351" d="M8 0l535 1434h266l534 -1434h-270l-119 322h-561l-119 -322h-266zM399 1589v201h213v-201h-213zM471 551h406l-201 594zM739 1589v201h213v-201h-213z" />
<glyph unicode="&#xc5;" horiz-adv-x="1351" d="M8 0l535 1434h266l534 -1434h-270l-119 322h-561l-119 -322h-266zM440 1729q0 96 67.5 164.5t168.5 68.5q100 0 168.5 -69t68.5 -164q0 -93 -69 -163.5t-168 -70.5q-100 0 -168 70.5t-68 163.5zM471 551h406l-201 594zM590 1729q0 -37 24.5 -62t61.5 -25q35 0 59.5 25 t24.5 62q0 35 -24.5 59t-59.5 24q-37 0 -61.5 -24t-24.5 -59z" />
<glyph unicode="&#xc6;" horiz-adv-x="1812" d="M8 0l676 1434h1006v-234h-590v-340h549v-233h-549v-394h590v-233h-840v319h-434l-150 -319h-258zM524 553h326v649h-25z" />
<glyph unicode="&#xc7;" horiz-adv-x="1488" d="M109 717q0 212 87 381t246 264.5t363 95.5q217 0 374.5 -90t239.5 -260l-221 -113q-51 109 -150 168.5t-243 59.5q-122 0 -223.5 -64.5t-161.5 -181t-60 -260.5q0 -220 127.5 -363t317.5 -143q143 0 244.5 60.5t154.5 164.5l219 -110q-80 -164 -241.5 -257.5 t-368.5 -93.5l-45 -61q84 11 145.5 -43.5t61.5 -142.5q0 -87 -61.5 -143t-168.5 -56q-95 0 -165 53l65 109q46 -37 98 -37q42 0 70.5 20t28.5 54q0 33 -28 53t-69 20q-46 0 -83 -22l-66 47l86 160q-260 41 -416.5 242t-156.5 489z" />
<glyph unicode="&#xc8;" horiz-adv-x="1146" d="M184 0v1434h840v-234h-590v-340h549v-233h-549v-394h590v-233h-840zM285 1823h295l139 -260h-227z" />
<glyph unicode="&#xc9;" horiz-adv-x="1146" d="M184 0v1434h840v-234h-590v-340h549v-233h-549v-394h590v-233h-840zM492 1563l139 260h295l-207 -260h-227z" />
<glyph unicode="&#xca;" horiz-adv-x="1146" d="M184 0v1434h840v-234h-590v-340h549v-233h-549v-394h590v-233h-840zM285 1563l213 260h219l207 -260h-234l-86 131l-86 -131h-233z" />
<glyph unicode="&#xcb;" horiz-adv-x="1146" d="M184 0v1434h840v-234h-590v-340h549v-233h-549v-394h590v-233h-840zM328 1589v201h213v-201h-213zM668 1589v201h213v-201h-213z" />
<glyph unicode="&#xcc;" horiz-adv-x="618" d="M-10 1823h295l139 -260h-227zM184 0v1434h250v-1434h-250z" />
<glyph unicode="&#xcd;" horiz-adv-x="618" d="M184 0v1434h250v-1434h-250zM197 1563l139 260h295l-207 -260h-227z" />
<glyph unicode="&#xce;" horiz-adv-x="618" d="M-10 1563l213 260h219l207 -260h-234l-86 131l-86 -131h-233zM184 0v1434h250v-1434h-250z" />
<glyph unicode="&#xcf;" horiz-adv-x="618" d="M33 1589v201h213v-201h-213zM184 0v1434h250v-1434h-250zM373 1589v201h213v-201h-213z" />
<glyph unicode="&#xd0;" horiz-adv-x="1492" d="M102 604v225h123v605h365q183 0 333 -53t250.5 -147.5t155.5 -226.5t55 -290q0 -212 -99 -375t-279.5 -252.5t-415.5 -89.5h-365v604h-123zM475 233h133q240 0 381 128.5t141 355.5t-139.5 355t-382.5 128h-133v-371h283v-225h-283v-371z" />
<glyph unicode="&#xd1;" horiz-adv-x="1507" d="M184 0v1434h269l620 -1028v1028h250v-1434h-264l-625 1004v-1004h-250zM449 1563q-22 118 33 189t151 71q44 0 89 -24t80.5 -48.5t55.5 -24.5q31 0 42 25t1 72h158q23 -120 -30.5 -190t-156.5 -70q-36 0 -71 15t-57.5 33t-48.5 33t-46 15q-64 0 -43 -96h-157z" />
<glyph unicode="&#xd2;" horiz-adv-x="1671" d="M109 717q0 156 54.5 293t150 235.5t231 155.5t291.5 57t291.5 -57t231 -155.5t150 -235.5t54.5 -293q0 -154 -56 -291.5t-152.5 -236.5t-231.5 -156.5t-287 -57.5t-287 57.5t-231.5 156.5t-152.5 236.5t-56 291.5zM360 717q0 -144 64 -261t173 -182t239 -65 q199 0 335 144.5t136 363.5q0 108 -38 203.5t-101.5 161.5t-150 104.5t-181.5 38.5t-182 -38.5t-152 -104.5t-103.5 -161.5t-38.5 -203.5zM516 1823h295l139 -260h-227z" />
<glyph unicode="&#xd3;" horiz-adv-x="1671" d="M109 717q0 156 54.5 293t150 235.5t231 155.5t291.5 57t291.5 -57t231 -155.5t150 -235.5t54.5 -293q0 -154 -56 -291.5t-152.5 -236.5t-231.5 -156.5t-287 -57.5t-287 57.5t-231.5 156.5t-152.5 236.5t-56 291.5zM360 717q0 -144 64 -261t173 -182t239 -65 q199 0 335 144.5t136 363.5q0 108 -38 203.5t-101.5 161.5t-150 104.5t-181.5 38.5t-182 -38.5t-152 -104.5t-103.5 -161.5t-38.5 -203.5zM723 1563l139 260h295l-207 -260h-227z" />
<glyph unicode="&#xd4;" horiz-adv-x="1671" d="M109 717q0 156 54.5 293t150 235.5t231 155.5t291.5 57t291.5 -57t231 -155.5t150 -235.5t54.5 -293q0 -154 -56 -291.5t-152.5 -236.5t-231.5 -156.5t-287 -57.5t-287 57.5t-231.5 156.5t-152.5 236.5t-56 291.5zM360 717q0 -144 64 -261t173 -182t239 -65 q199 0 335 144.5t136 363.5q0 108 -38 203.5t-101.5 161.5t-150 104.5t-181.5 38.5t-182 -38.5t-152 -104.5t-103.5 -161.5t-38.5 -203.5zM516 1563l213 260h219l207 -260h-233l-86 131l-86 -131h-234z" />
<glyph unicode="&#xd5;" horiz-adv-x="1671" d="M109 717q0 156 54.5 293t150 235.5t231 155.5t291.5 57t291.5 -57t231 -155.5t150 -235.5t54.5 -293q0 -154 -56 -291.5t-152.5 -236.5t-231.5 -156.5t-287 -57.5t-287 57.5t-231.5 156.5t-152.5 236.5t-56 291.5zM360 717q0 -144 64 -261t173 -182t239 -65 q199 0 335 144.5t136 363.5q0 108 -38 203.5t-101.5 161.5t-150 104.5t-181.5 38.5t-182 -38.5t-152 -104.5t-103.5 -161.5t-38.5 -203.5zM530 1563q-22 118 33.5 189t151.5 71q44 0 89 -24t80.5 -48.5t55.5 -24.5q31 0 42 25t1 72h158q23 -120 -30.5 -190t-156.5 -70 q-36 0 -71 15t-57.5 33t-48.5 33t-46 15q-64 0 -43 -96h-158z" />
<glyph unicode="&#xd6;" horiz-adv-x="1671" d="M109 717q0 156 54.5 293t150 235.5t231 155.5t291.5 57t291.5 -57t231 -155.5t150 -235.5t54.5 -293q0 -154 -56 -291.5t-152.5 -236.5t-231.5 -156.5t-287 -57.5t-287 57.5t-231.5 156.5t-152.5 236.5t-56 291.5zM360 717q0 -144 64 -261t173 -182t239 -65 q199 0 335 144.5t136 363.5q0 108 -38 203.5t-101.5 161.5t-150 104.5t-181.5 38.5t-182 -38.5t-152 -104.5t-103.5 -161.5t-38.5 -203.5zM559 1589v201h213v-201h-213zM899 1589v201h213v-201h-213z" />
<glyph unicode="&#xd7;" horiz-adv-x="1134" d="M170 459l254 262l-254 260l147 141l250 -256l250 256l148 -141l-254 -260l254 -262l-148 -142l-250 256l-250 -256z" />
<glyph unicode="&#xd8;" horiz-adv-x="1671" d="M109 717q0 156 54.5 293t150 235.5t231 155.5t291.5 57q233 0 419 -127l107 123l141 -108l-117 -134q177 -206 177 -495q0 -154 -56 -291.5t-152.5 -236.5t-231.5 -156.5t-287 -57.5q-232 0 -416 129l-109 -124l-141 108l117 135q-178 207 -178 494zM360 717 q0 -171 93 -305l639 733q-116 80 -256 80q-95 0 -182 -38.5t-152 -104.5t-103.5 -161.5t-38.5 -203.5zM580 287q118 -78 256 -78q199 0 335 144.5t136 363.5q0 170 -88 301z" />
<glyph unicode="&#xd9;" horiz-adv-x="1495" d="M164 598v836h252v-789q0 -223 87 -328.5t245 -105.5q329 0 329 434v789h254v-836q0 -289 -153.5 -456t-429.5 -167t-430 167.5t-154 455.5zM428 1823h295l139 -260h-227z" />
<glyph unicode="&#xda;" horiz-adv-x="1495" d="M164 598v836h252v-789q0 -223 87 -328.5t245 -105.5q329 0 329 434v789h254v-836q0 -289 -153.5 -456t-429.5 -167t-430 167.5t-154 455.5zM635 1563l139 260h295l-207 -260h-227z" />
<glyph unicode="&#xdb;" horiz-adv-x="1495" d="M164 598v836h252v-789q0 -223 87 -328.5t245 -105.5q329 0 329 434v789h254v-836q0 -289 -153.5 -456t-429.5 -167t-430 167.5t-154 455.5zM428 1563l213 260h219l207 -260h-233l-86 131l-86 -131h-234z" />
<glyph unicode="&#xdc;" horiz-adv-x="1495" d="M164 598v836h252v-789q0 -223 87 -328.5t245 -105.5q329 0 329 434v789h254v-836q0 -289 -153.5 -456t-429.5 -167t-430 167.5t-154 455.5zM471 1589v201h213v-201h-213zM811 1589v201h213v-201h-213z" />
<glyph unicode="&#xdd;" horiz-adv-x="1130" d="M-16 1434h274l307 -555l307 555h275l-457 -805v-629h-250v629zM453 1563l139 260h295l-207 -260h-227z" />
<glyph unicode="&#xde;" horiz-adv-x="1153" d="M86 0v1434h250v-238h266q206 0 335.5 -125.5t129.5 -318.5t-129.5 -319t-335.5 -126h-266v-307h-250zM336 543h244q110 0 173.5 58t63.5 151q0 95 -63 152t-174 57h-244v-418z" />
<glyph unicode="&#xdf;" horiz-adv-x="1259" d="M164 0v1075q0 183 87 283t255 100q79 0 129 -20v-228q-44 27 -96 27q-60 0 -98 -38t-38 -107v-99h701v-215l-268 -338q146 -40 242 -158.5t96 -263.5q0 -91 -36 -173t-101 -144t-162 -98.5t-211 -36.5q-103 0 -179 24v213q71 -24 138 -24q126 0 213.5 68.5t87.5 172.5 q0 117 -91 183.5t-237 66.5v185l246 321h-439v-776h-239z" />
<glyph unicode="&#xe0;" horiz-adv-x="1312" d="M86 512q0 148 65 271t181.5 194.5t261.5 71.5q97 0 183.5 -37.5t133.5 -96.5l29 109h209v-1024h-209l-29 109q-44 -58 -131.5 -96t-185.5 -38q-145 0 -261.5 71.5t-181.5 194.5t-65 271zM307 1434h295l139 -260h-227zM332 512q0 -137 86 -228t217 -91q130 0 215.5 91 t85.5 228t-85.5 228t-215.5 91q-131 0 -217 -91t-86 -228z" />
<glyph unicode="&#xe1;" horiz-adv-x="1312" d="M86 512q0 148 65 271t181.5 194.5t261.5 71.5q97 0 183.5 -37.5t133.5 -96.5l29 109h209v-1024h-209l-29 109q-44 -58 -131.5 -96t-185.5 -38q-145 0 -261.5 71.5t-181.5 194.5t-65 271zM332 512q0 -137 86 -228t217 -91q130 0 215.5 91t85.5 228t-85.5 228t-215.5 91 q-131 0 -217 -91t-86 -228zM514 1174l139 260h295l-207 -260h-227z" />
<glyph unicode="&#xe2;" horiz-adv-x="1312" d="M86 512q0 148 65 271t181.5 194.5t261.5 71.5q97 0 183.5 -37.5t133.5 -96.5l29 109h209v-1024h-209l-29 109q-44 -58 -131.5 -96t-185.5 -38q-145 0 -261.5 71.5t-181.5 194.5t-65 271zM307 1174l213 260h219l207 -260h-233l-86 131l-86 -131h-234zM332 512 q0 -137 86 -228t217 -91q130 0 215.5 91t85.5 228t-85.5 228t-215.5 91q-131 0 -217 -91t-86 -228z" />
<glyph unicode="&#xe3;" horiz-adv-x="1312" d="M86 512q0 148 65 271t181.5 194.5t261.5 71.5q97 0 183.5 -37.5t133.5 -96.5l29 109h209v-1024h-209l-29 109q-44 -58 -131.5 -96t-185.5 -38q-145 0 -261.5 71.5t-181.5 194.5t-65 271zM322 1174q-22 118 33 189t151 71q44 0 89 -24t80.5 -48.5t55.5 -24.5q31 0 42 25 t1 72h158q23 -120 -30.5 -190t-156.5 -70q-36 0 -71 15t-57.5 33t-48.5 33t-46 15q-64 0 -43 -96h-157zM332 512q0 -137 86 -228t217 -91q130 0 215.5 91t85.5 228t-85.5 228t-215.5 91q-131 0 -217 -91t-86 -228z" />
<glyph unicode="&#xe4;" horiz-adv-x="1312" d="M86 512q0 148 65 271t181.5 194.5t261.5 71.5q97 0 183.5 -37.5t133.5 -96.5l29 109h209v-1024h-209l-29 109q-44 -58 -131.5 -96t-185.5 -38q-145 0 -261.5 71.5t-181.5 194.5t-65 271zM332 512q0 -137 86 -228t217 -91q130 0 215.5 91t85.5 228t-85.5 228t-215.5 91 q-131 0 -217 -91t-86 -228zM350 1200v201h213v-201h-213zM690 1200v201h213v-201h-213z" />
<glyph unicode="&#xe5;" horiz-adv-x="1312" d="M86 512q0 148 65 271t181.5 194.5t261.5 71.5q97 0 183.5 -37.5t133.5 -96.5l29 109h209v-1024h-209l-29 109q-44 -58 -131.5 -96t-185.5 -38q-145 0 -261.5 71.5t-181.5 194.5t-65 271zM332 512q0 -137 86 -228t217 -91q130 0 215.5 91t85.5 228t-85.5 228t-215.5 91 q-131 0 -217 -91t-86 -228zM391 1339q0 96 67.5 165t168.5 69q100 0 168.5 -69.5t68.5 -164.5q0 -93 -69 -163t-168 -70q-100 0 -168 70t-68 163zM541 1339q0 -37 24.5 -61.5t61.5 -24.5q35 0 59.5 24.5t24.5 61.5q0 35 -24.5 59.5t-59.5 24.5q-37 0 -61.5 -24.5 t-24.5 -59.5z" />
<glyph unicode="&#xe6;" horiz-adv-x="2017" d="M78 512q0 148 65 271t181.5 194.5t261.5 71.5q97 0 183.5 -37.5t133.5 -96.5l29 109h209v-119q111 144 329 144q123 0 222 -53t156 -139t80 -195t5 -222h-768q6 -113 85.5 -180t203.5 -67q87 0 146 37.5t106 117.5l201 -88q-59 -133 -173.5 -209t-277.5 -76 q-98 0 -181.5 33t-133.5 90v-98h-209l-29 109q-44 -58 -131.5 -96t-185.5 -38q-145 0 -261.5 71.5t-181.5 194.5t-65 271zM324 512q0 -137 86 -228t217 -91q130 0 215.5 91t85.5 228t-85.5 228t-215.5 91q-131 0 -217 -91t-86 -228zM1165 621h533q-6 93 -79.5 151.5 t-180.5 58.5q-109 0 -187.5 -60t-85.5 -150z" />
<glyph unicode="&#xe7;" horiz-adv-x="1146" d="M86 512q0 110 38.5 209t106 171t164.5 114.5t209 42.5q178 0 298 -78t171 -213l-217 -90q-36 79 -95.5 121t-156.5 42q-125 0 -198.5 -89.5t-73.5 -229.5t73 -229.5t199 -89.5q180 0 254 161l213 -92q-51 -119 -158 -199t-272 -88l-45 -61q84 11 145.5 -43.5t61.5 -142.5 q0 -87 -61.5 -143t-168.5 -56q-95 0 -165 53l65 109q46 -37 98 -37q42 0 70.5 20t28.5 54q0 33 -28 53t-69 20q-47 0 -84 -22l-65 47l84 158q-188 34 -305 181.5t-117 346.5z" />
<glyph unicode="&#xe8;" horiz-adv-x="1175" d="M86 512q0 149 63.5 271t180.5 194t264 72q231 0 367.5 -144.5t136.5 -372.5q0 -54 -6 -92h-768q6 -113 85 -180t203 -67q87 0 146 37.5t106 117.5l201 -88q-58 -130 -183 -207.5t-290 -77.5q-153 0 -269 70.5t-176.5 191.5t-60.5 275zM274 1434h295l140 -260h-228z M324 621h532q-6 93 -79.5 151.5t-180.5 58.5q-109 0 -187 -59.5t-85 -150.5z" />
<glyph unicode="&#xe9;" horiz-adv-x="1175" d="M86 512q0 149 63.5 271t180.5 194t264 72q231 0 367.5 -144.5t136.5 -372.5q0 -54 -6 -92h-768q6 -113 85 -180t203 -67q87 0 146 37.5t106 117.5l201 -88q-58 -130 -183 -207.5t-290 -77.5q-153 0 -269 70.5t-176.5 191.5t-60.5 275zM324 621h532q-6 93 -79.5 151.5 t-180.5 58.5q-109 0 -187 -59.5t-85 -150.5zM481 1174l140 260h294l-206 -260h-228z" />
<glyph unicode="&#xea;" horiz-adv-x="1175" d="M86 512q0 149 63.5 271t180.5 194t264 72q231 0 367.5 -144.5t136.5 -372.5q0 -54 -6 -92h-768q6 -113 85 -180t203 -67q87 0 146 37.5t106 117.5l201 -88q-58 -130 -183 -207.5t-290 -77.5q-153 0 -269 70.5t-176.5 191.5t-60.5 275zM274 1174l213 260h220l206 -260 h-233l-86 131l-86 -131h-234zM324 621h532q-6 93 -79.5 151.5t-180.5 58.5q-109 0 -187 -59.5t-85 -150.5z" />
<glyph unicode="&#xeb;" horiz-adv-x="1175" d="M86 512q0 149 63.5 271t180.5 194t264 72q231 0 367.5 -144.5t136.5 -372.5q0 -54 -6 -92h-768q6 -113 85 -180t203 -67q87 0 146 37.5t106 117.5l201 -88q-58 -130 -183 -207.5t-290 -77.5q-153 0 -269 70.5t-176.5 191.5t-60.5 275zM317 1200v201h213v-201h-213z M324 621h532q-6 93 -79.5 151.5t-180.5 58.5q-109 0 -187 -59.5t-85 -150.5zM657 1200v201h213v-201h-213z" />
<glyph unicode="&#xec;" horiz-adv-x="559" d="M-41 1434h295l139 -260h-227zM160 0v1024h239v-1024h-239z" />
<glyph unicode="&#xed;" horiz-adv-x="559" d="M160 0v1024h239v-1024h-239zM166 1174l139 260h295l-207 -260h-227z" />
<glyph unicode="&#xee;" horiz-adv-x="559" d="M-41 1174l213 260h219l207 -260h-233l-86 131l-86 -131h-234zM160 0v1024h239v-1024h-239z" />
<glyph unicode="&#xef;" horiz-adv-x="559" d="M2 1200v201h213v-201h-213zM160 0v1024h239v-1024h-239zM342 1200v201h213v-201h-213z" />
<glyph unicode="&#xf0;" horiz-adv-x="1253" d="M86 512q0 111 41 210t112.5 171t172.5 114t215 42q17 0 37 -5l-99 113l-252 -67l-47 174l168 45l-137 155h281l77 -96l203 53l47 -174l-129 -35l238 -297q153 -192 153 -403q0 -226 -154.5 -381.5t-385.5 -155.5q-114 0 -215 42t-172.5 114t-112.5 171t-41 210zM332 512 q0 -138 82 -228.5t213 -90.5q130 0 212.5 90.5t82.5 228.5t-82.5 228.5t-212.5 90.5q-131 0 -213 -90.5t-82 -228.5z" />
<glyph unicode="&#xf1;" horiz-adv-x="1247" d="M164 0v1024h209l28 -143q39 73 123 120.5t181 47.5q197 0 296 -113t99 -330v-606h-240v549q0 282 -205 282q-112 0 -182 -105.5t-70 -307.5v-418h-239zM317 1174q-22 118 33.5 189t151.5 71q44 0 89 -24t80.5 -48.5t55.5 -24.5q31 0 42 25t1 72h158q23 -120 -30.5 -190 t-156.5 -70q-36 0 -71 15t-57.5 33t-48.5 33t-46 15q-64 0 -43 -96h-158z" />
<glyph unicode="&#xf2;" horiz-adv-x="1253" d="M86 512q0 111 41 210t112.5 171t172.5 114t215 42q231 0 385.5 -155.5t154.5 -381.5t-154.5 -381.5t-385.5 -155.5q-114 0 -215 42t-172.5 114t-112.5 171t-41 210zM307 1436h295l139 -260h-227zM332 512q0 -138 82 -228.5t213 -90.5q130 0 212.5 90.5t82.5 228.5 t-82.5 228.5t-212.5 90.5q-131 0 -213 -90.5t-82 -228.5z" />
<glyph unicode="&#xf3;" horiz-adv-x="1253" d="M86 512q0 111 41 210t112.5 171t172.5 114t215 42q231 0 385.5 -155.5t154.5 -381.5t-154.5 -381.5t-385.5 -155.5q-114 0 -215 42t-172.5 114t-112.5 171t-41 210zM332 512q0 -138 82 -228.5t213 -90.5q130 0 212.5 90.5t82.5 228.5t-82.5 228.5t-212.5 90.5 q-131 0 -213 -90.5t-82 -228.5zM514 1176l139 260h295l-207 -260h-227z" />
<glyph unicode="&#xf4;" horiz-adv-x="1253" d="M86 512q0 111 41 210t112.5 171t172.5 114t215 42q231 0 385.5 -155.5t154.5 -381.5t-154.5 -381.5t-385.5 -155.5q-114 0 -215 42t-172.5 114t-112.5 171t-41 210zM307 1176l213 260h219l207 -260h-233l-86 131l-86 -131h-234zM332 512q0 -138 82 -228.5t213 -90.5 q130 0 212.5 90.5t82.5 228.5t-82.5 228.5t-212.5 90.5q-131 0 -213 -90.5t-82 -228.5z" />
<glyph unicode="&#xf5;" horiz-adv-x="1253" d="M86 512q0 111 41 210t112.5 171t172.5 114t215 42q231 0 385.5 -155.5t154.5 -381.5t-154.5 -381.5t-385.5 -155.5q-114 0 -215 42t-172.5 114t-112.5 171t-41 210zM322 1176q-22 118 33 189t151 71q44 0 89 -24t80.5 -48.5t55.5 -24.5q31 0 42 25t1 72h158 q23 -120 -30.5 -190t-156.5 -70q-36 0 -71 15t-57.5 33t-48.5 33t-46 15q-64 0 -43 -96h-157zM332 512q0 -138 82 -228.5t213 -90.5q130 0 212.5 90.5t82.5 228.5t-82.5 228.5t-212.5 90.5q-131 0 -213 -90.5t-82 -228.5z" />
<glyph unicode="&#xf6;" horiz-adv-x="1253" d="M86 512q0 111 41 210t112.5 171t172.5 114t215 42q231 0 385.5 -155.5t154.5 -381.5t-154.5 -381.5t-385.5 -155.5q-114 0 -215 42t-172.5 114t-112.5 171t-41 210zM332 512q0 -138 82 -228.5t213 -90.5q130 0 212.5 90.5t82.5 228.5t-82.5 228.5t-212.5 90.5 q-131 0 -213 -90.5t-82 -228.5zM350 1202v201h213v-201h-213zM690 1202v201h213v-201h-213z" />
<glyph unicode="&#xf7;" horiz-adv-x="1134" d="M133 608v217h868v-217h-868zM446 223v234h242v-234h-242zM446 977v233h242v-233h-242z" />
<glyph unicode="&#xf8;" horiz-adv-x="1253" d="M86 512q0 111 41 210t112.5 171t172.5 114t215 42q151 0 284 -76l78 88l137 -111l-79 -92q120 -148 120 -346q0 -226 -154.5 -381.5t-385.5 -155.5q-158 0 -285 76l-76 -88l-137 111l80 92q-123 145 -123 346zM332 512q0 -94 37 -164l393 453q-65 30 -135 30 q-131 0 -213 -90.5t-82 -228.5zM494 223q58 -30 133 -30q130 0 212.5 90.5t82.5 228.5q0 92 -37 162z" />
<glyph unicode="&#xf9;" horiz-adv-x="1267" d="M147 434v590h240v-561q0 -270 215 -270q121 0 191.5 101.5t70.5 289.5v440h240v-1024h-209l-29 143q-39 -73 -126.5 -120.5t-184.5 -47.5q-203 0 -305.5 118t-102.5 341zM295 1434h295l139 -260h-227z" />
<glyph unicode="&#xfa;" horiz-adv-x="1267" d="M147 434v590h240v-561q0 -270 215 -270q121 0 191.5 101.5t70.5 289.5v440h240v-1024h-209l-29 143q-39 -73 -126.5 -120.5t-184.5 -47.5q-203 0 -305.5 118t-102.5 341zM502 1174l139 260h295l-207 -260h-227z" />
<glyph unicode="&#xfb;" horiz-adv-x="1267" d="M147 434v590h240v-561q0 -270 215 -270q121 0 191.5 101.5t70.5 289.5v440h240v-1024h-209l-29 143q-39 -73 -126.5 -120.5t-184.5 -47.5q-203 0 -305.5 118t-102.5 341zM295 1174l213 260h219l207 -260h-234l-86 131l-86 -131h-233z" />
<glyph unicode="&#xfc;" horiz-adv-x="1267" d="M147 434v590h240v-561q0 -270 215 -270q121 0 191.5 101.5t70.5 289.5v440h240v-1024h-209l-29 143q-39 -73 -126.5 -120.5t-184.5 -47.5q-203 0 -305.5 118t-102.5 341zM338 1200v201h213v-201h-213zM678 1200v201h213v-201h-213z" />
<glyph unicode="&#xfd;" horiz-adv-x="1026" d="M0 1024h250l268 -709l250 709h252l-541 -1434h-243l157 439zM397 1174l140 260h294l-206 -260h-228z" />
<glyph unicode="&#xfe;" horiz-adv-x="1232" d="M86 -412v1876h240v-549q57 59 141.5 96.5t175.5 37.5q152 0 268 -72t176 -193.5t60 -271.5q0 -148 -66 -271t-184 -194.5t-264 -71.5q-95 0 -179 39t-128 95v-521h-240zM299 512q0 -137 85.5 -228t215.5 -91q128 0 215.5 91.5t87.5 227.5q0 139 -80 229t-213 90 q-131 0 -221 -91.5t-90 -227.5z" />
<glyph unicode="&#xff;" horiz-adv-x="1026" d="M0 1024h250l268 -709l250 709h252l-541 -1434h-243l157 439zM233 1200v201h213v-201h-213zM573 1200v201h213v-201h-213z" />
<glyph unicode="&#x152;" horiz-adv-x="1980" d="M109 717q0 158 55 290t155.5 226.5t250.5 147.5t333 53h955v-234h-590v-340h549v-233h-549v-394h590v-233h-955q-235 0 -415.5 89.5t-279.5 252.5t-99 375zM362 717q0 -227 141.5 -355.5t381.5 -128.5h133v967h-133q-243 0 -383 -128t-140 -355z" />
<glyph unicode="&#x153;" horiz-adv-x="2023" d="M78 512q0 226 154.5 381.5t385.5 155.5q128 0 240.5 -53t181.5 -146q64 92 170 145.5t232 53.5q231 0 367.5 -144.5t136.5 -372.5q0 -48 -7 -92h-768q6 -113 85.5 -180t203.5 -67q87 0 146 37.5t106 117.5l201 -88q-58 -130 -183 -207.5t-290 -77.5q-130 0 -236 51.5 t-168 143.5q-68 -91 -179.5 -143t-238.5 -52q-231 0 -385.5 155.5t-154.5 381.5zM324 512q0 -138 81.5 -228.5t212.5 -90.5q130 0 212.5 90.5t82.5 228.5t-82.5 228.5t-212.5 90.5q-131 0 -212.5 -90.5t-81.5 -228.5zM1171 621h533q-6 93 -79.5 151.5t-180.5 58.5 q-109 0 -187.5 -60t-85.5 -150z" />
<glyph unicode="&#x178;" horiz-adv-x="1130" d="M-16 1434h274l307 -555l307 555h275l-457 -805v-629h-250v629zM289 1589v201h213v-201h-213zM629 1589v201h213v-201h-213z" />
<glyph unicode="&#x2c6;" horiz-adv-x="1048" d="M205 1174l213 260h219l207 -260h-234l-86 131l-86 -131h-233z" />
<glyph unicode="&#x2dc;" horiz-adv-x="1048" d="M219 1174q-22 118 33 189t151 71q35 0 71 -15t61 -33.5t51.5 -33.5t42.5 -15q31 0 42 25t1 72h157q23 -120 -30 -190t-156 -70q-36 0 -71 15t-57.5 33t-48.5 33t-46 15q-64 0 -43 -96h-158z" />
<glyph unicode="&#x2000;" horiz-adv-x="981" />
<glyph unicode="&#x2001;" horiz-adv-x="1962" />
<glyph unicode="&#x2002;" horiz-adv-x="981" />
<glyph unicode="&#x2003;" horiz-adv-x="1962" />
<glyph unicode="&#x2004;" horiz-adv-x="654" />
<glyph unicode="&#x2005;" horiz-adv-x="490" />
<glyph unicode="&#x2006;" horiz-adv-x="327" />
<glyph unicode="&#x2007;" horiz-adv-x="327" />
<glyph unicode="&#x2008;" horiz-adv-x="245" />
<glyph unicode="&#x2009;" horiz-adv-x="392" />
<glyph unicode="&#x200a;" horiz-adv-x="109" />
<glyph unicode="&#x2010;" horiz-adv-x="921" d="M154 403v234h614v-234h-614z" />
<glyph unicode="&#x2011;" horiz-adv-x="921" d="M154 403v234h614v-234h-614z" />
<glyph unicode="&#x2012;" horiz-adv-x="921" d="M154 403v234h614v-234h-614z" />
<glyph unicode="&#x2013;" horiz-adv-x="1290" d="M154 412v217h983v-217h-983z" />
<glyph unicode="&#x2014;" horiz-adv-x="1880" d="M154 412v217h1572v-217h-1572z" />
<glyph unicode="&#x2018;" horiz-adv-x="608" d="M111 915l204 519h183l-111 -519h-276z" />
<glyph unicode="&#x2019;" horiz-adv-x="559" d="M86 915l111 519h276l-205 -519h-182z" />
<glyph unicode="&#x201a;" horiz-adv-x="583" d="M98 -266l111 518h276l-204 -518h-183z" />
<glyph unicode="&#x201c;" horiz-adv-x="1032" d="M111 915l204 519h183l-111 -519h-276zM535 915l204 519h183l-111 -519h-276z" />
<glyph unicode="&#x201d;" horiz-adv-x="983" d="M86 915l111 519h276l-205 -519h-182zM510 915l111 519h276l-205 -519h-182z" />
<glyph unicode="&#x201e;" horiz-adv-x="1007" d="M98 -266l111 518h276l-204 -518h-183zM522 -266l111 518h276l-204 -518h-183z" />
<glyph unicode="&#x2022;" horiz-adv-x="620" d="M90 676q0 89 64 153t155 64t156 -64t65 -153t-65 -152t-156 -63t-155 63t-64 152z" />
<glyph unicode="&#x2026;" horiz-adv-x="1902" d="M184 0v244h252v-244h-252zM825 0v244h252v-244h-252zM1466 0v244h252v-244h-252z" />
<glyph unicode="&#x202f;" horiz-adv-x="392" />
<glyph unicode="&#x2039;" horiz-adv-x="587" d="M74 532l202 349h238l-205 -349l205 -348h-238z" />
<glyph unicode="&#x203a;" horiz-adv-x="538" d="M49 184l205 348l-205 349h238l202 -349l-202 -348h-238z" />
<glyph unicode="&#x205f;" horiz-adv-x="490" />
<glyph unicode="&#x20ac;" d="M10 455v204h113v115h-113v205h137q49 229 182 355t320 124q177 -1 291.5 -92.5t157.5 -263.5l-217 -68q-25 87 -78.5 138t-153.5 51q-86 0 -151.5 -62t-98.5 -182h359v-205h-387v-115h387v-204h-359q32 -121 96 -182.5t154 -61.5q177 0 238 207l227 -72 q-56 -170 -172 -270.5t-293 -100.5q-187 0 -319 126t-183 354h-137z" />
<glyph unicode="&#x2122;" horiz-adv-x="1437" d="M123 1290v144h461v-144h-160v-430h-154v430h-147zM668 860v574h227l96 -365l107 365h217v-574h-144v369l-102 -369h-145l-113 369v-369h-143z" />
<glyph unicode="&#xe000;" horiz-adv-x="1024" d="M0 0v1024h1024v-1024h-1024z" />
</font>
</defs>
</svg>
